<svg width="256" height="304" viewBox="0 0 256 304" fill="none" xmlns="http://www.w3.org/2000/svg">
<path d="M80 288.752C80 292.48 80.576 295.488 81.472 298.08C81.472 298.08 86 299.5 94 301C102 302.5 121.5 303.5 128.5 303.5C135.5 303.5 135 303.922 154 301.5C173 299.078 191.44 293.04 191.44 293.04C191.632 291.616 192 290.416 192 288.752V245.008C192 225.6 179.184 199.84 161.616 190.672C225.456 184.064 255.92 152.272 255.92 109.12C255.92 90.56 248.048 72.624 234.672 57.504C239.136 42.496 244.752 11.696 233.04 0C204.208 0 186.8 18.72 182.672 23.728C168.304 18.784 152.496 16 135.92 16C119.376 16 103.632 18.784 89.296 23.696C85.12 18.656 67.728 0 38.96 0C27.296 11.68 32.848 42.352 37.264 57.392C23.808 72.544 15.888 90.528 15.888 109.12C15.888 152.304 46.4 184.112 110.336 190.688C99.248 196.48 90.176 208.752 84.928 222.08C75.168 223.616 64.8 224.016 57.872 224.016C43.584 224.016 39.984 221.744 32.336 211.712C24.656 201.696 16.496 194.944 6.65602 192.16C1.32802 191.6 -2.19198 195.744 2.43202 199.376C18.016 210.288 19.104 228.128 25.392 239.792C31.056 250.288 42.736 255.936 55.872 255.936H80V288.752Z" fill="#87BDE4"/>
</svg>
